<?xml version="1.0" encoding="UTF-8"?>
<svg width="1090px" height="999px" viewBox="0 0 1090 999" version="1.1" xmlns="http://www.w3.org/2000/svg" xmlns:xlink="http://www.w3.org/1999/xlink">
    <!-- Generator: Sketch 56.3 (81716) - https://sketch.com -->
    <title>undraw_next_option_2ajo</title>
    <desc>Created with Sketch.</desc>
    <g id="Page-1" stroke="none" stroke-width="1" fill="none" fill-rule="evenodd">
        <g id="undraw_next_option_2ajo" fill-rule="nonzero">
            <circle id="Oval" fill="#67B3B3" cx="499.5" cy="499.5" r="499.5"></circle>
            <rect id="Rectangle" fill="#D5C143" transform="translate(389.448942, 477.499975) rotate(-22.244650) translate(-389.448942, -477.499975) " x="340.448942" y="78.9999749" width="98" height="797"></rect>
            <rect id="Rectangle" fill="#D5C143" transform="translate(225.829594, 482.100528) rotate(-22.244650) translate(-225.829594, -482.100528) " x="176.829594" y="100.455493" width="98" height="763.29007"></rect>
            <rect id="Rectangle" fill="#D5C143" transform="translate(565.448942, 454.499964) rotate(-22.244650) translate(-565.448942, -454.499964) " x="516.448942" y="55.9999642" width="98" height="797"></rect>
            <ellipse id="Oval" fill="#3F3D56" cx="523.44893" cy="836.5" rx="290" ry="48.5"></ellipse>
            <path d="M1000.5145,688.08007 L998.32993,687.41307 L183.08241,438.74365 L185.32508,437.62402 L744.97541,158.15234 L745.41584,159.06542 L1000.5145,688.08007 Z M188.46128,438.29345 L996.72935,684.83394 L744.05552,160.84765 L188.46128,438.29345 Z" id="Shape" fill="#3F3D56"></path>
            <rect id="Rectangle" fill="#085352" x="886.44893" y="578" width="203" height="194"></rect>
            <rect id="Rectangle" fill="#085352" x="669.44893" y="63" width="203" height="194"></rect>
            <rect id="Rectangle" fill="#085352" x="96.44893" y="341" width="203" height="194"></rect>
            <path d="M483.94893,311.5 L477.94893,311.5 L452.44893,404 C452.44893,404 451.94893,465.5 457.94893,495.5 C457.94893,495.5 467.94893,482.5 474.94893,482.5 C481.94893,482.5 488.44893,417 488.44893,417 C488.44893,417 515.94893,323.5 483.94893,311.5 Z" id="Path" fill="#3F3D56"></path>
            <path d="M615.94893,488.5 C615.94893,488.5 599.94893,533.5 614.94893,536.5 C629.94893,539.5 637.94893,501.5 633.94893,496.5 C629.94893,491.5 615.94893,488.5 615.94893,488.5 Z" id="Path" fill="#A0616A"></path>
            <path d="M456.32208,479.20304 C456.32208,479.20304 460.81979,526.75061 475.68372,523.13625 C490.54765,519.52189 481.75389,481.69771 476.01672,478.85433 C470.27955,476.01095 456.32208,479.20304 456.32208,479.20304 Z" id="Path" fill="#A0616A"></path>
            <path d="M494.94893,757.5 C494.94893,757.5 501.94893,791.5 489.94893,800.5 C477.94893,809.5 493.94893,828.5 493.94893,828.5 L531.94893,788.5 C531.94893,788.5 515.94893,763.5 516.94893,748.5 L494.94893,757.5 Z" id="Path" fill="#A0616A"></path>
            <polygon id="Path" fill="#A0616A" points="554.949 788.5 550.949 815.5 549.949 834.5 571.949 832.5 574.949 793.5"></polygon>
            <path d="M470.28141,483.9685 C470.28141,483.9685 457.94898,488.5 458.94898,501.5 C459.94898,514.5 462.94898,555.5 462.94898,555.5 C462.94898,555.5 453.94898,643.5 462.94898,673.5 C471.94898,703.5 488.94898,763.5 488.94898,763.5 C488.94898,763.5 514.94898,768.5 520.94898,749.5 C520.94898,749.5 519.94898,684.5 508.94898,670.5 C497.94898,656.5 505.94898,652.5 506.94898,650.5 C507.94898,648.5 510.94898,645.5 510.94898,642.5 C510.94898,639.5 511.94898,628.5 511.94898,624.5 C511.94898,620.5 510.94898,621.5 512.94898,615.5 C514.94898,609.5 516.94898,607.5 516.94898,606.5 C516.94898,605.5 533.94898,552.5 533.94898,552.5 L555.94898,675.5 C555.94898,675.5 550.94898,796.5 552.94898,796.5 C554.94898,796.5 576.94898,804.5 584.94898,796.5 C584.94898,796.5 604.94898,692.5 600.94898,686.5 C596.94898,680.5 595.94898,679.5 596.94898,673.5 C597.94898,667.5 599.94898,664.5 597.94898,661.5 C595.94898,658.5 592.94898,648.5 595.94898,645.5 C598.94898,642.5 599.94898,628.5 599.94898,628.5 C599.94898,628.5 616.94898,530.5 605.94898,516.5 C594.94898,502.5 470.28141,483.9685 470.28141,483.9685 Z" id="Path" fill="#2F2E41"></path>
            <path d="M503.94893,801.5 C503.94893,801.5 491.94893,786.5 487.94893,793.5 C483.94893,800.5 477.94893,811.5 477.94893,811.5 C477.94893,811.5 432.94893,850.5 457.94893,851.5 C482.94893,852.5 498.94893,834.5 498.94893,834.5 C498.94893,834.5 502.94893,814.5 514.94893,814.5 L516.94893,819.5 L538.94893,805.5 C538.94893,805.5 535.85069,778.94865 526.89981,779.72432 L503.94893,801.5 Z" id="Path" fill="#2F2E41"></path>
            <path d="M545.94893,831.5 C545.94893,831.5 571.94893,821.5 574.94893,831.5 C577.94893,841.5 577.94893,846.5 577.94893,846.5 C577.94893,846.5 599.94893,882.5 577.94893,884.5 C555.94893,886.5 545.94893,872.5 545.94893,872.5 C545.94893,872.5 548.94893,855.5 545.94893,853.5 C542.94893,851.5 545.94893,831.5 545.94893,831.5 Z" id="Path" fill="#2F2E41"></path>
            <circle id="Oval" fill="#A0616A" cx="563.94893" cy="244.5" r="35"></circle>
            <path d="M537.94893,252.5 L530.94893,291.5 L579.94893,303.5 C579.94893,303.5 568.44893,275 580.94893,262.5 C584.11121,259.33772 537.94893,252.5 537.94893,252.5 Z" id="Path" fill="#A0616A"></path>
            <path d="M533.9311,274.88504 C531.521838,275.338792 529.585434,277.132489 528.94893,279.50004 C528.076187,282.37316 526.723781,285.077974 524.94893,287.50004 C524.94893,287.50004 477.94893,309.50004 477.94893,312.50004 C477.94893,315.50004 496.94893,379.50004 496.94893,379.50004 C496.94893,379.50004 497.94893,419.50004 489.94893,428.50004 C481.94893,437.50004 473.94893,470.50004 475.94893,473.50004 C477.94893,476.50004 461.94893,483.50004 467.94893,488.50004 C473.94893,493.50004 557.94893,541.50004 607.94893,519.50004 C607.94893,519.50004 608.94893,510.50004 607.94893,504.50004 C606.94893,498.50004 613.94893,478.50004 611.94893,471.50004 C609.94893,464.50004 611.94893,392.50004 611.94893,392.50004 L622.25468,307.24341 C622.661244,303.900623 620.608784,300.748534 617.38723,299.76817 C605.86157,296.26523 579.13323,281.92349 575.44893,285.00004 C570.67841,288.98361 540.91327,286.27009 533.9311,274.88504 Z" id="Path" fill="#3F3D56"></path>
            <path d="M612.94893,299.5 L613.01269,299.47449 C615.954664,298.294254 619.322437,299.25886 621.19347,301.81765 C627.39003,310.29715 640.43086,329.3554 641.94893,341.5 C643.94893,357.5 649.94893,400.5 648.94893,406.5 C647.94893,412.5 646.94893,413.5 648.94893,416.5 C650.94893,419.5 649.94893,418.5 648.94893,421.5 C647.94893,424.5 635.94893,507.5 635.94893,507.5 C635.94893,507.5 627.94893,489.5 612.94893,495.5 C612.94893,495.5 614.94893,479.5 612.94893,474.5 C610.94893,469.5 608.94893,466.5 610.94893,462.5 C612.94893,458.5 610.94893,419.5 609.94893,415.5 C608.94893,411.5 609.94893,390.5 609.94893,390.5 L600.94893,349.5 L612.94893,299.5 Z" id="Path" fill="#3F3D56"></path>
            <path d="M557.41196,250.45875 L558.59416,242.21755 C558.86971,240.29669 559.99387,237.77105 561.86275,238.29344 C563.45229,238.73774 566.91543,240.09844 567.49523,239.68774 C569.66658,238.14954 572.95247,240.83915 575.23581,239.47274 C576.19245,238.90025 576.81653,237.67374 577.92837,237.59188 C578.67436,237.639519 579.377272,237.957961 579.90501,238.48736 C581.387221,239.776324 583.133703,240.725088 585.02175,241.26699 C586.95072,241.792222 589.012814,241.230151 590.40845,239.79872 C590.650475,239.424279 590.976668,239.111589 591.361,238.8856 C591.8121,238.755587 592.293459,238.777727 592.73072,238.9486 L598.56472,240.53702 C600.301025,234.241589 599.205825,227.501981 595.56546,222.08027 C593.198709,218.867697 590.329483,216.057721 587.06823,213.75851 C583.455277,211.00993 579.726713,208.424697 575.88254,206.00281 C571.67512,203.34491 567.21314,200.83769 562.2929,200.09055 C557.37308,199.34347 551.8644,200.68008 548.76983,204.57705 C547.314221,203.52358 546.220151,202.045604 545.63766,200.34581 C544.935211,200.984885 544.552325,201.902558 544.592248,202.851377 C544.63217,203.800196 545.09079,204.682461 545.84444,205.26027 L540.91049,202.10949 C539.52343,203.56583 542.2334,206.20668 541.05162,207.83403 C540.694195,208.236509 540.235543,208.535967 539.72329,208.70131 C537.04423,209.745507 534.588837,211.290945 532.48864,213.25484 C529.65282,216.0985 528.11274,219.95845 526.79089,223.75068 C523.85077,232.18558 521.71389,241.8588 525.89123,249.75447 C526.36481,250.64958 532.61606,265.42392 533.44889,266.00004 C536.26422,267.94755 534.43156,263.23436 536.44889,266.00004 C538.03083,268.16881 537.73471,259.86814 540.08577,261.69015 C541.968835,263.03752 544.468647,263.149938 546.46505,261.97703 C547.43977,261.30103 547.1257,257.54732 546.59977,254.10021 C546.395508,252.766965 546.866523,251.419302 547.856815,250.503559 C548.847107,249.587816 550.227442,249.2235 551.54066,249.53127 C554.4688,250.22002 557.36177,250.80863 557.41196,250.45875 Z" id="Path" fill="#2F2E41"></path>
            <path d="M605.60219,330.11142 L614.44893,430 C614.44893,430 595.75541,346.22285 605.60219,330.11142 Z" id="Path" fill="#000000" opacity="0.1"></path>
            <polygon id="Path" fill="#3F3D56" points="752.165 137.307 804.165 160.307 752.165 182.307"></polygon>
            <path d="M274.51591,515.51855 L120.51591,515.51855 L120.51591,361.51855 L274.51591,361.51855 L274.51591,515.51855 Z M122.6548,513.37966 L272.37702,513.37966 L272.37702,363.65744 L122.6548,363.65744 L122.6548,513.37966 Z" id="Shape" fill="#D0CDE1"></path>
            <rect id="Rectangle" fill="#3F3D56" x="150.46035" y="410.22649" width="94.11111" height="8.58413"></rect>
            <rect id="Rectangle" fill="#3F3D56" x="150.46035" y="434.22649" width="94.11111" height="8.58413"></rect>
            <rect id="Rectangle" fill="#3F3D56" x="150.46035" y="458.22649" width="94.11111" height="8.58413"></rect>
            <path d="M1062.62216,711.95669 L912.62216,711.95669 L912.62216,638.95669 L1062.62216,638.95669 L1062.62216,711.95669 Z M914.62216,709.95669 L1060.62216,709.95669 L1060.62216,640.95669 L914.62216,640.95669 L914.62216,709.95669 Z" id="Shape" fill="#D0CDE1"></path>
            <circle id="Oval" fill="#3F3D56" cx="953.62216" cy="675.45669" r="11"></circle>
            <circle id="Oval" fill="#3F3D56" cx="987.62216" cy="675.45669" r="11"></circle>
            <circle id="Oval" fill="#3F3D56" cx="1021.62216" cy="675.45669" r="11"></circle>
            <path d="M845.94893,196.5 L695.94893,196.5 L695.94893,123.5 L845.94893,123.5 L845.94893,196.5 Z M697.94893,194.5 L843.94893,194.5 L843.94893,125.5 L697.94893,125.5 L697.94893,194.5 Z" id="Shape" fill="#D0CDE1"></path>
        </g>
    </g>
</svg>