<?xml version="1.0" encoding="UTF-8"?>
<svg width="1051px" height="1028px" viewBox="0 0 1051 1028" version="1.1" xmlns="http://www.w3.org/2000/svg" xmlns:xlink="http://www.w3.org/1999/xlink">
    <!-- Generator: Sketch 56.3 (81716) - https://sketch.com -->
    <title>instpymt</title>
    <desc>Created with Sketch.</desc>
    <g id="Page-1" stroke="none" stroke-width="1" fill="none" fill-rule="evenodd">
        <g id="instpymt">
            <circle id="Oval" fill="#FDDA01" cx="537" cy="514" r="514"></circle>
            <path d="M11.24928,472.02302 C40.18128,284.19175 140.15049,148.60383 257.49271,143.16552 C319.52805,140.29045 384.80648,174.25898 432.33405,293.12727 C517.29465,505.61719 427.11305,652.45427 364.24077,722.22827 C333.83916,755.96722 306.53039,796.64733 282.92503,842.89478 C240.45685,926.09812 158.7578,1029.48992 61.45793,867.49086 C-9.06515,750.07373 -8.0223,597.13721 11.24928,472.02302 Z" id="Path" fill="#F2F2F2" fill-rule="nonzero"></path>
            <rect id="Rectangle" fill="#3F3D56" fill-rule="nonzero" x="205.35007" y="638.51999" width="845.65002" height="307.43005"></rect>
            <polygon id="Path" fill="#000000" fill-rule="nonzero" opacity="0.1" points="433.47 638.52 205.35 795.12 205.35 704.43 301.36 638.52"></polygon>
            <polygon id="Path" fill="#000000" fill-rule="nonzero" opacity="0.1" points="658.91 638.52 445.54 785 437.9 790.25 211.09 945.95 205.35 945.95 205.35 859.19 351.5 758.87 356.39 755.51 526.81 638.52"></polygon>
            <path d="M230.20633,793.20513 L227.93017,790.35259 C228.15645,790.17264 250.96656,772.18343 287.40064,761.89396 C308.506297,755.879618 330.501405,753.603905 352.39134,755.16973 C379.53951,757.14473 406.53311,765.15719 432.62205,778.98517 L430.91337,782.2101 C372.87229,751.44503 321.37371,756.09088 288.39217,765.40574 C252.6592,775.49744 230.42681,793.02874 230.20633,793.20513 Z" id="Path" fill="#F2F2F2" fill-rule="nonzero"></path>
            <path d="M450.74354,791.77886 C439.85221,789.89708 425.43963,789.10967 415.0577,791.11361 L429.20391,779.26261 L432.49384,761.10731 C435.89343,771.11941 443.71396,783.25124 450.74354,791.77886 Z" id="Path" fill="#F2F2F2" fill-rule="nonzero"></path>
            <path d="M603.50343,828.876192 C586.06937,828.856323 568.721548,826.42926 551.95143,821.66376 C515.51735,811.37429 492.70724,793.38509 492.48096,793.20513 L494.75667,790.35259 C494.97805,790.52898 517.3209,808.12259 553.09218,818.19385 C586.04254,827.47219 637.48812,832.07973 695.46372,801.34762 L697.17239,804.57255 C671.08346,818.40055 644.0903,826.41295 616.94214,828.388 C612.4682,828.714047 607.98863,828.876777 603.50343,828.876192 Z" id="Path" fill="#F2F2F2" fill-rule="nonzero"></path>
            <path d="M715.2943,791.77886 C708.26651,800.30955 700.44601,812.44138 697.04642,822.45357 L693.75468,804.29516 L679.61027,792.44723 C689.99217,794.45112 704.40478,793.66376 715.2943,791.77886 Z" id="Path" fill="#F2F2F2" fill-rule="nonzero"></path>
            <path d="M769.34298,793.20513 L767.06593,790.35259 C767.29221,790.17264 790.10277,772.18343 826.53729,761.89396 C847.643325,755.880781 869.638375,753.60509 891.52844,755.16973 C918.67661,757.14473 945.66977,765.15719 971.7587,778.98517 L970.05002,782.2101 C912.01028,751.44592 860.51036,756.08999 827.52882,765.40574 C791.79541,775.49744 769.56305,793.02874 769.34298,793.20513 Z" id="Path" fill="#F2F2F2" fill-rule="nonzero"></path>
            <path d="M989.87975,791.77886 C978.98839,789.89708 964.57575,789.10967 954.19388,791.11361 L968.34012,779.26261 L971.63012,761.10731 C975.02961,771.11941 982.85017,783.25124 989.87975,791.77886 Z" id="Path" fill="#F2F2F2" fill-rule="nonzero"></path>
            <rect id="Rectangle" fill="#085352" fill-rule="nonzero" x="702.52288" y="722.44831" width="59.29586" height="1.82449"></rect>
            <rect id="Rectangle" fill="#085352" fill-rule="nonzero" x="702.52288" y="740.69319" width="59.29586" height="1.82449"></rect>
            <rect id="Rectangle" fill="#085352" fill-rule="nonzero" x="702.52288" y="758.93807" width="59.29586" height="1.82449"></rect>
            <rect id="Rectangle" fill="#085352" fill-rule="nonzero" x="436.14763" y="830.09311" width="59.29586" height="1.82449"></rect>
            <rect id="Rectangle" fill="#085352" fill-rule="nonzero" x="436.14763" y="848.33799" width="59.29586" height="1.82449"></rect>
            <rect id="Rectangle" fill="#085352" fill-rule="nonzero" x="436.14763" y="866.58287" width="59.29586" height="1.82449"></rect>
            <rect id="Rectangle" fill="#085352" fill-rule="nonzero" x="977.10833" y="830.09311" width="59.29586" height="1.82449"></rect>
            <rect id="Rectangle" fill="#085352" fill-rule="nonzero" x="977.10833" y="848.33799" width="59.29586" height="1.82449"></rect>
            <rect id="Rectangle" fill="#085352" fill-rule="nonzero" x="977.10833" y="866.58287" width="59.29586" height="1.82449"></rect>
            <circle id="Oval" fill="#085352" fill-rule="nonzero" cx="467.16393" cy="802.72579" r="11.85917"></circle>
            <circle id="Oval" fill="#085352" fill-rule="nonzero" cx="732.62694" cy="786.30539" r="11.85917"></circle>
            <circle id="Oval" fill="#085352" fill-rule="nonzero" cx="1006.30014" cy="802.72579" r="11.85917"></circle>
            <path d="M348.0813,555.96778 L330.41741,537.02992 L349.35524,519.36604 L367.01912,538.30392 L348.0813,555.96778 Z M333.23293,537.12792 L348.17929,553.15223 L364.20361,538.20592 L349.25724,522.18161 L333.23293,537.12792 Z" id="Shape" fill="#3F3D56" fill-rule="nonzero"></path>
            <path d="M773.0813,333.96778 L755.41741,315.02992 L774.35524,297.36604 L792.01912,316.30392 L773.0813,333.96778 Z M758.23293,315.12792 L773.17929,331.15223 L789.20361,316.20592 L774.25724,300.18161 L758.23293,315.12792 Z" id="Shape" fill="#3F3D56" fill-rule="nonzero"></path>
            <path d="M990.0001,640.05628 L964.1031,640.05628 L964.1031,614.15928 L990.0001,614.15928 L990.0001,640.05628 Z M966.09518,638.0642 L988.00805,638.0642 L988.00805,616.15137 L966.09518,616.15137 L966.09518,638.0642 Z" id="Shape" fill="#3F3D56" fill-rule="nonzero"></path>
            <circle id="Oval" fill="#085352" fill-rule="nonzero" cx="606.44991" cy="728.84332" r="13.2214"></circle>
            <path d="M606.44991,767.03848 C591.001407,767.03848 577.074059,757.73254 571.162168,743.459986 C565.250277,729.187433 568.51809,712.759009 579.44183,701.835267 C590.36557,690.911524 606.793992,687.643707 621.066547,693.555594 C635.339102,699.467481 644.64505,713.394827 644.64505,728.84333 C644.621435,749.928136 627.534716,767.01486 606.44991,767.03848 L606.44991,767.03848 Z M606.44991,693.58626 C586.977968,693.58626 571.19284,709.371388 571.19284,728.84333 C571.19284,748.315272 586.977968,764.1004 606.44991,764.1004 C625.921852,764.1004 641.70698,748.315272 641.70698,728.84333 C641.684722,709.380615 625.912625,693.608518 606.44991,693.58626 Z" id="Shape" fill="#F2F2F2" fill-rule="nonzero"></path>
            <rect id="Rectangle" fill="#F2F2F2" fill-rule="nonzero" x="532.06954" y="385.73794" width="154" height="153"></rect>
            <path d="M604.7714,730.54082 L603.24086,729.04682 C610.280171,721.065248 615.615889,711.730583 618.92117,701.61463 C624.12479,685.95468 626.66681,661.22273 609.22359,632.33263 C591.37671,602.77356 590.57359,578.76485 593.04197,563.82918 C595.72864,547.57759 602.58238,538.46799 602.87272,538.08836 L604.57244,539.38705 C604.50404,539.47634 597.70983,548.53737 595.13178,564.30437 C592.75164,578.86093 593.58192,602.28792 611.05438,631.22663 C628.94356,660.85563 626.29345,686.2743 620.92064,702.3802 C615.09874,719.83071 605.19072,730.11158 604.7714,730.54082 Z" id="Path" fill="#3F3D56" fill-rule="nonzero"></path>
            <path d="M685.0001,539.80739 L531.0001,539.80739 L531.0001,385.80739 L685.0001,385.80739 L685.0001,539.80739 Z M533.13899,537.6685 L682.86121,537.6685 L682.86121,387.94628 L533.13899,387.94628 L533.13899,537.6685 Z" id="Shape" fill="#3F3D56" fill-rule="nonzero"></path>
            <rect id="Rectangle" fill="#3F3D56" fill-rule="nonzero" x="563.08343" y="430.72405" width="94.11111" height="2.13889"></rect>
            <rect id="Rectangle" fill="#3F3D56" fill-rule="nonzero" x="563.08343" y="454.25183" width="94.11111" height="2.13889"></rect>
            <rect id="Rectangle" fill="#3F3D56" fill-rule="nonzero" x="563.08343" y="477.77961" width="94.11111" height="2.13889"></rect>
            <polygon id="Path" fill="#FFB9B9" fill-rule="nonzero" points="155.075 851.867 151.207 889.266 173.13 886.687 175.709 855.736"></polygon>
            <path d="M97.04249,568.15065 C97.04249,568.15065 -15.15451,676.47883 55.77461,710.00898 L77.69817,710.00898 C77.69817,710.00898 125.41417,631.34208 148.62733,632.63171 L155.07544,707.42971 L151.20658,858.31539 L179.57824,859.60501 C179.57824,859.60501 196.34332,783.51736 195.0537,740.95986 L224.71498,583.62608 L97.04249,568.15065 Z" id="Path" fill="#2F2E41" fill-rule="nonzero"></path>
            <path d="M62.22271,704.85049 L77.69817,710.00898 C77.69817,710.00898 138.31036,695.82314 142.17923,697.11276 L154.1789,697.02988 L153.78582,666.16188 L102.20097,666.16188 L62.22271,704.85049 Z" id="Path" fill="#2F2E41" fill-rule="nonzero"></path>
            <path d="M175.70938,881.52859 C175.70938,881.52859 152.4962,871.21159 148.62738,881.52859 C144.75856,891.84559 146.04814,921.50685 146.04814,921.50685 C146.04814,921.50685 151.20663,930.5342 148.62738,940.85117 C146.04813,951.16814 158.94438,956.32662 175.70938,951.16817 C192.47445,946.00972 192.47445,933.11347 192.47445,933.11347 L175.70938,881.52859 Z" id="Path" fill="#2F2E41" fill-rule="nonzero"></path>
            <path d="M195.0537,663.58261 C195.0537,663.58261 213.10839,653.26561 211.81877,668.7411 C210.52915,684.21659 204.08104,698.40239 204.08104,698.40239 C204.08104,698.40239 220.84612,742.24951 204.08104,746.11839 C187.31596,749.98727 174.41976,740.9599 174.41976,734.5118 C174.41976,728.0637 195.0537,663.58261 195.0537,663.58261 Z" id="Path" fill="#2F2E41" fill-rule="nonzero"></path>
            <polygon id="Path" fill="#FFB9B9" fill-rule="nonzero" points="138.31 310.226 140.89 359.232 162.813 378.576 187.316 343.757 187.316 308.937"></polygon>
            <path d="M155.07544,359.23201 L140.31223,348.26192 L130.57264,363.10092 L86.72552,388.89334 L112.51794,455.95364 L113.80756,521.72432 C113.80756,521.72432 66.09156,570.72993 94.46324,577.17803 C122.83492,583.62613 223.42536,597.81192 228.58385,586.20534 C233.74234,574.59876 222.13574,454.66398 222.13574,454.66398 L226.00461,352.78392 L187.31597,338.7961 L155.07544,359.23201 Z" id="Path" fill="#D0CDE1" fill-rule="nonzero"></path>
            <path d="M76.40855,440.90971 C76.40855,440.90971 66.09155,513.987076 85.4359,513.987076 C96.9244338,514.025709 108.311476,511.835891 118.96605,507.53845 L103.49059,467.56019 L109.9387,440.47819 L76.40855,440.90971 Z" id="Path" fill="#FFB9B9" fill-rule="nonzero"></path>
            <path d="M106.06983,504.95921 L120.25567,507.53845 C120.25567,507.53845 161.52355,481.74603 164.10279,480.45645 C166.68203,479.16687 122.83491,457.24326 122.83491,457.24326 L93.17362,468.84985 L106.06983,504.95921 Z" id="Path" fill="#FFB9B9" fill-rule="nonzero"></path>
            <path d="M122.83491,457.24322 L104.21191,464.53048 L109.9387,440.47815 L76.40855,440.90973 C76.40855,440.90973 66.09155,513.987076 85.4359,513.987076 C96.9244338,514.025709 108.311476,511.835891 118.96605,507.53845 L118.86844,507.28626 L120.25567,507.53845 C120.25567,507.53845 161.52355,481.74603 164.10279,480.45645 C166.68203,479.16687 122.83491,457.24322 122.83491,457.24322 Z" id="Path" fill="#000000" fill-rule="nonzero" opacity="0.1"></path>
            <circle id="Oval" fill="#FFB9B9" fill-rule="nonzero" cx="168.14483" cy="297.85357" r="36.82489"></circle>
            <path d="M135.5873,256.31001 L128.3923,253.42952 C128.3923,253.42952 143.43635,236.86688 164.36738,238.30717 L158.48038,231.82606 C158.48038,231.82606 172.87038,226.0652 185.9522,241.18755 C192.82904,249.13705 200.78564,258.48126 205.74575,269.00741 L213.45111,269.00741 L210.23518,276.08852 L221.49093,283.16963 L209.938,281.89763 C211.032299,288.010941 210.657768,294.296813 208.84529,300.23693 L209.15496,305.83384 C209.15496,305.83384 195.76349,285.11447 195.76349,282.23398 L195.76349,289.43514 C195.76349,289.43514 188.56849,282.95414 188.56849,278.63346 L184.64397,283.67428 L182.68171,275.75298 L158.48039,283.67428 L162.40491,277.19328 L147.36091,279.35362 L153.24791,271.43232 C153.24791,271.43232 136.24161,280.79381 135.58739,288.71511 C134.93339,296.6363 126.43031,306.71794 126.43031,306.71794 L122.50579,299.51679 C122.50579,299.51679 116.61873,267.11168 135.5873,256.31001 Z" id="Path" fill="#2F2E41" fill-rule="nonzero"></path>
            <path d="M200.21218,418.55459 C200.21218,418.55459 189.89518,430.16118 189.89518,446.92625 L121.54526,444.34701 C121.54526,444.34701 103.49056,441.76777 103.49056,454.66401 L103.49056,467.56022 C103.49056,467.56022 112.51791,463.69136 117.6764,467.56022 C122.83489,471.42908 178.28859,504.95922 205.37064,492.06303 C232.45269,479.16684 238.90079,428.87159 238.90079,428.87159 C238.90079,428.87159 214.39805,408.23762 200.21218,418.55459 Z" id="Path" fill="#FFB9B9" fill-rule="nonzero"></path>
            <path d="M215.68764,354.07353 L226.00464,352.78391 C226.00464,352.78391 246.63857,355.36315 244.05933,395.34141 C241.48009,435.31967 240.19047,437.89891 240.19047,437.89891 C240.19047,437.89891 213.10847,413.3961 193.76411,425.00269 L215.68764,354.07353 Z" id="Path" fill="#D0CDE1" fill-rule="nonzero"></path>
            <path d="M91.88405,388.8933 L86.72557,388.8933 C80.0423643,397.335306 76.4068483,407.787385 76.40857,418.55459 C76.2901144,430.086769 74.7745053,441.562093 71.89489,452.72959 L112.51796,445.63667 L91.88405,388.8933 Z" id="Path" fill="#D0CDE1" fill-rule="nonzero"></path>
            <rect id="Rectangle" fill="#3F3D56" fill-rule="nonzero" x="731.50005" y="552.16623" width="2" height="51.92969"></rect>
            <path d="M732.50005,540.09592 C734.60747,545.77552 738.20318,552.82248 742.01177,557.19065 L732.50005,553.75022 L722.99028,557.19065 C726.79888,552.82248 730.39458,545.77552 732.50005,540.09592 Z" id="Path" fill="#3F3D56" fill-rule="nonzero"></path>
            <rect id="Rectangle" fill="#3F3D56" fill-rule="nonzero" x="491.50005" y="507.16623" width="2" height="51.92969"></rect>
            <path d="M492.50005,495.09592 C494.60747,500.77552 498.20318,507.82248 502.01177,512.19065 L492.50005,508.75022 L482.99028,512.19065 C486.79888,507.82248 490.39458,500.77552 492.50005,495.09592 Z" id="Path" fill="#3F3D56" fill-rule="nonzero"></path>
            <rect id="Rectangle" fill="#3F3D56" fill-rule="nonzero" x="823.50005" y="467.16623" width="2" height="51.92969"></rect>
            <path d="M824.50005,455.09592 C826.60747,460.77552 830.20318,467.82248 834.01177,472.19065 L824.50005,468.75022 L814.99028,472.19065 C818.79888,467.82248 822.39458,460.77552 824.50005,455.09592 Z" id="Path" fill="#3F3D56" fill-rule="nonzero"></path>
        </g>
    </g>
</svg>