<?xml version="1.0" encoding="UTF-8"?>
<svg width="988px" height="647px" viewBox="0 0 988 647" version="1.1" xmlns="http://www.w3.org/2000/svg" xmlns:xlink="http://www.w3.org/1999/xlink">
    <!-- Generator: Sketch 56.3 (81716) - https://sketch.com -->
    <title>main</title>
    <desc>Created with Sketch.</desc>
    <g id="Page-1" stroke="none" stroke-width="1" fill="none" fill-rule="evenodd">
        <g id="main" fill-rule="nonzero">
            <circle id="Oval" fill="#D5C143" cx="293.90997" cy="495.22798" r="145"></circle>
            <rect id="Rectangle" fill="#2F2E41" x="24.40041" y="640.35898" width="963.50956" height="2.24072"></rect>
            <path d="M287.76999,496.14796 C287.76999,604.50796 223.34999,642.34796 143.88999,642.34796 C142.03999,642.34796 140.19999,642.32796 138.36999,642.27796 C134.68999,642.19796 131.03999,642.03796 127.43999,641.77796 C55.71999,636.70796 -1e-05,596.91796 -1e-05,496.14796 C-1e-05,391.86796 133.23999,260.27796 143.28999,250.50796 C143.29518,250.502255 143.302311,250.498689 143.30999,250.49796 C143.68999,250.11802 143.88999,249.92802 143.88999,249.92802 C143.88999,249.92802 287.76999,387.77796 287.76999,496.14796 Z" id="Path" fill="#3F3D56"></path>
            <path d="M138.63999,625.76795 L191.26999,552.23795 L138.50999,633.83795 L138.37004,642.27795 C134.69004,642.19795 131.04004,642.03795 127.44004,641.77795 L133.11004,533.36795 L133.07004,532.52795 L133.17004,532.36795 L133.70004,522.12795 L80.81009,440.31795 L133.86009,514.44795 L133.99009,516.61795 L138.28009,434.70795 L93.00009,350.17795 L138.83009,420.31795 L143.29009,250.50795 L143.31009,249.928 L143.31009,250.49794 L142.57009,384.40794 L187.64009,331.31794 L142.38009,395.93794 L141.19015,469.27794 L183.28015,398.89794 L141.01015,480.07794 L140.35015,520.84794 L201.45015,422.87794 L140.1202,535.07794 L138.63999,625.76795 Z" id="Path" fill="#F2F2F2"></path>
            <path d="M803.40999,201.72798 L783.40999,180.72798 C783.40999,180.72798 761.40999,147.72798 745.40999,156.72798 C729.40999,165.72798 768.40999,186.72798 768.40999,186.72798 L788.40999,219.72798 L803.40999,201.72798 Z" id="Path" fill="#F4B0B9"></path>
            <path d="M866.40999,608.72798 C866.40999,608.72798 881.40999,637.72798 870.40999,639.72798 C859.40999,641.72798 805.40999,644.72798 804.40999,641.72798 C803.40999,638.72798 795.40999,628.72798 801.40999,624.72798 C807.40999,620.72798 831.40999,617.72798 831.40999,617.72798 L839.40999,609.72798 L866.40999,608.72798 Z" id="Path" fill="#2F2E41"></path>
            <path d="M874.40999,325.72798 C874.40999,325.72798 906.40999,365.72798 880.40999,406.72798 L874.40999,475.72798 C874.40999,475.72798 885.40999,570.72798 871.40999,602.72798 L869.40999,613.72798 L834.40999,613.72798 L843.40999,529.72798 C843.40999,529.72798 842.40999,519.72798 839.40999,517.72798 C836.40999,515.72798 787.40999,407.72798 787.40999,407.72798 C787.40999,407.72798 795.40999,392.72798 792.40999,389.72798 C789.40999,386.72798 795.40999,326.72798 798.40999,324.72798 C801.40999,322.72798 874.40999,325.72798 874.40999,325.72798 Z" id="Path" fill="#2F2E41"></path>
            <polygon id="Path" fill="#A0616A" points="817.41 599.728 813.41 622.728 852.41 620.728 847.41 595.728"></polygon>
            <circle id="Oval" fill="#F4B0B9" cx="824.40997" cy="161.72798" r="30"></circle>
            <path d="M851.40999,166.72798 L854.40999,202.72798 L822.40999,217.72798 C822.40999,217.72798 827.90999,184.22798 823.90999,175.22798 L851.40999,166.72798 Z" id="Path" fill="#F4B0B9"></path>
            <path d="M818.40999,215.72798 L821.40999,203.72798 L862.40999,188.72798 C862.40999,188.72798 866.40999,188.72798 865.40999,195.72798 C864.40999,202.72798 864.40999,201.72798 864.40999,201.72798 C864.40999,201.72798 878.40999,207.72798 879.40999,217.72798 C880.40999,227.72798 896.40999,230.72798 895.40999,245.72798 C894.40999,260.72798 889.40999,268.72798 889.40999,268.72798 C889.40999,268.72798 894.40999,280.72798 886.40999,287.72798 C886.40999,287.72798 878.40999,301.72798 882.40999,311.72798 C886.40999,321.72798 891.40999,338.72798 880.40999,335.72798 C869.40999,332.72798 793.40999,327.72798 793.40999,327.72798 C793.40999,327.72798 782.40999,286.72798 794.40999,271.72798 C794.40999,271.72798 794.40999,262.72798 803.40999,244.72798 C812.40999,226.72798 818.40999,215.72798 818.40999,215.72798 Z" id="Path" fill="#575A89"></path>
            <path d="M871.40999,328.72798 C871.40999,328.72798 858.40999,383.72798 842.40999,389.72798 C842.40999,389.72798 839.40999,429.72798 822.40999,427.72798 C805.40999,425.72798 822.40999,389.72798 822.40999,389.72798 L841.40999,320.72798 L871.40999,328.72798 Z" id="Path" fill="#F4B0B9"></path>
            <path d="M820.40999,218.72798 C820.40999,218.72798 805.40999,194.72798 801.40999,198.72798 C797.40999,202.72798 777.40999,214.72798 778.40999,222.72798 C779.40999,230.72798 788.40999,230.72798 788.40999,230.72798 L809.40999,246.72798 L820.40999,218.72798 Z" id="Path" fill="#575A89"></path>
            <path d="M799.40999,397.72798 L787.40999,406.35398 L779.40999,491.72798 C779.40999,491.72798 808.40999,607.72798 816.40999,608.72798 C824.40999,609.72798 857.40999,609.72798 856.40999,606.72798 C855.40999,603.72798 850.40999,591.72798 850.40999,588.72798 C850.40999,585.72798 839.98052,561.73638 839.98052,561.73638 L826.40999,505.72798 L829.40999,461.72798 L799.40999,397.72798 Z" id="Path" fill="#2F2E41"></path>
            <path d="M814.40999,614.72798 C814.40999,614.72798 856.40999,601.72798 858.40999,604.72798 C860.40999,607.72798 873.75028,637.9642 855.08013,641.34609 C836.40999,644.72798 769.40999,650.72798 769.40999,641.72798 C769.40999,632.72798 771.40999,626.72798 777.40999,626.72798 C783.40999,626.72798 810.40999,613.72798 812.40999,610.72798 C814.40999,607.72798 814.40999,614.72798 814.40999,614.72798 Z" id="Path" fill="#2F2E41"></path>
            <path d="M852.85625,163.69989 C853.431989,162.553421 853.203982,161.166607 852.291487,160.26482 C851.378992,159.363032 849.989584,159.151409 848.84999,159.74064 L848.79717,159.77103 C847.015504,160.853458 846.054511,162.896965 846.35717,164.95958 C842.751,161.36142 845.40869,154.14552 841.51232,150.86381 C839.70884,149.34481 836.78132,149.01065 835.8548,146.84237 C835.31542,145.58006 835.68214,144.08383 835.20669,142.79608 C834.50069,140.88392 832.24525,140.08543 830.22921,139.78479 C823.88927,138.83935 817.47755,140.44816 811.26945,142.04446 C808.9867,142.63146 806.58639,143.28368 804.92367,144.95426 C803.17238,146.71381 802.56301,149.27045 801.48915,151.50872 C800.41529,153.74699 793.37221,153.54472 790.90996,153.22798 C790.05396,150.7965 796.37584,150.61318 796.8919,148.08761 C798.30244,141.18461 793.39038,133.84408 795.80012,127.2233 C797.25212,123.23382 801.04531,120.59293 804.8642,118.73808 C815.473086,113.638159 827.583608,112.604731 838.9032,115.83343 C840.055416,116.087768 841.132074,116.608356 842.04697,117.35351 C843.5003,118.71028 843.76973,120.88869 844.73762,122.6254 C846.94294,126.58245 852.17318,127.52291 855.69992,130.36611 C861.04115,134.67211 861.64332,142.44719 861.81626,149.3058 C861.90336,152.7598 861.96482,156.3488 860.55009,159.50104 C859.13536,162.65328 855.78284,165.22177 852.39139,164.56152 C852.55199,164.30071 852.70599,164.00915 852.85625,163.69989 Z" id="Path" fill="#2F2E41"></path>
            <path d="M847.63871,228.47265 C855.599892,222.947461 866.286782,223.490555 873.64683,229.79435 C880.53876,235.65101 887.95283,244.04214 887.40998,252.72798 C886.40998,268.72798 880.40998,334.72798 872.40998,335.72798 C864.40998,336.72798 835.40998,328.72798 835.40998,323.72798 C835.40998,318.72798 842.40998,312.72798 842.40998,312.72798 L833.91073,261.73248 C831.724584,249.12165 836.868918,236.360583 847.19003,228.79177 C847.338517,228.684883 847.488077,228.57851 847.63871,228.47265 Z" id="Path" fill="#575A89"></path>
            <path d="M736.14769,3.13946737e-05 L495.5322,3.13946737e-05 C471.617095,3.13946737e-05 450.894135,16.5721664 445.63446,39.90172 L324.05621,579.16902 C321.37187,591.075495 324.08611,603.559636 331.471742,613.276748 C338.857374,622.993861 350.159457,628.950687 362.34999,629.5513 L609.70438,641.73843 C637.10315,643.08841 661.252031,623.904928 666.13484,596.91098 L735.10144,215.64298 L740.23225,217.10898 L753.42838,144.84442 L748.14692,143.52406 L767.39792,37.09848 C769.067355,27.8693254 766.536401,18.3763236 760.493928,11.2032609 C754.451455,4.03019828 745.526298,-0.0764300002 736.14769,3.13946737e-05 Z" id="Path" fill="#3F3D56"></path>
            <path d="M527.20885,11.62629 L499.12177,11.62629 C482.50287,11.62629 468.128179,23.2028522 464.58558,39.43978 L347.88721,574.3073 C346.527598,580.538844 347.95178,587.0535 351.787672,592.149244 C355.623565,597.244989 361.490103,600.415599 367.85459,600.83272 L614.40876,616.99166 C628.809307,617.935462 641.623218,607.917047 644.1815,593.71417 L743.76099,40.87647 C745.065744,33.6328215 743.091717,26.1834869 738.371038,20.5365398 C733.650359,14.8895927 726.668939,11.62629 719.30872,11.62629 L692.66372,11.62629 C687.361753,11.62629 682.719443,15.1840576 681.34107,20.30372 L681.34107,20.30372 C680.124209,24.8234773 676.02587,27.9643508 671.34517,27.96435 L544.85199,27.96435 C535.605594,27.9643507 527.918055,20.8454507 527.20889,11.62629 L527.20885,11.62629 Z" id="Path" fill="#BBC8C7"></path>
            <rect id="Rectangle" fill="#2F2E41" x="448.66041" y="149.87153" width="255.12532" height="1.25677"></rect>
            <rect id="Rectangle" fill="#2F2E41" x="438.60621" y="190.71671" width="257.63887" height="1.25677"></rect>
            <polygon id="Path" fill="#2F2E41" points="687.675 147.881 681.877 140.152 682.883 139.399 687.893 146.078 707.199 130.283 707.994 131.256"></polygon>
            <polygon id="Path" fill="#2F2E41" points="654.37 330.114 648.573 322.385 649.578 321.631 654.589 328.311 673.894 312.515 674.69 313.489"></polygon>
            <rect id="Rectangle" fill="#2F2E41" transform="translate(543.861104, 333.674851) rotate(-88.786860) translate(-543.861104, -333.674851) " x="543.232574" y="200.112571" width="1.25706" height="267.12456"></rect>
            <rect id="Rectangle" fill="#2F2E41" transform="translate(538.205593, 371.063895) rotate(-88.677010) translate(-538.205593, -371.063895) " x="537.577033" y="234.98173" width="1.25712" height="272.16433"></rect>
            <path d="M568.99662,474.43366 C568.99662,507.403297 542.269447,534.130467 509.29981,534.130467 C476.330173,534.130467 449.603,507.403297 449.603,474.43366 C449.603,473.68591 449.61558,472.94438 449.647,472.20285 C450.862125,439.690936 477.887637,414.139198 510.416569,414.747209 C542.945501,415.35522 568.99662,441.899046 568.99662,474.43366 L568.99662,474.43366 Z" id="Path" fill="#085352" opacity="0.546232329"></path>
            <path d="M563.34113,497.684 C563.34113,498.43174 563.32855,499.17327 563.29713,499.9148 C551.369187,525.180875 523.513891,538.795689 496.250109,532.685328 C468.986327,526.574967 449.606356,502.37378 449.60299,474.43366 C449.60299,473.68591 449.61557,472.94438 449.64699,472.20285 C461.574959,446.936823 489.43023,433.32205 516.69398,439.432409 C543.957731,445.542767 563.337689,469.743911 563.34113,497.684 L563.34113,497.684 Z" id="Path" fill="#085352" opacity="0.546232329"></path>
            <polygon id="Path" fill="#F2F2F2" points="497.217 490.858 475.995 462.562 481.022 458.791 498.311 481.843 566.379 426.152 570.358 431.016"></polygon>
        </g>
    </g>
</svg>