<?xml version="1.0" encoding="UTF-8"?>
<svg width="1071px" height="1061px" viewBox="0 0 1071 1061" version="1.1" xmlns="http://www.w3.org/2000/svg" xmlns:xlink="http://www.w3.org/1999/xlink">
    <!-- Generator: Sketch 56.3 (81716) - https://sketch.com -->
    <title>undraw_new_ideas_jdea</title>
    <desc>Created with Sketch.</desc>
    <g id="Page-1" stroke="none" stroke-width="1" fill="none" fill-rule="evenodd">
        <g id="undraw_new_ideas_jdea" fill-rule="nonzero">
            <circle id="Oval" fill="#67B3B3" cx="530.5" cy="530.5" r="530.5"></circle>
            <path d="M1014.99879,381.31 C1014.99879,416.48 1006.66872,445.43 992.21882,470.23 C987.44963,478.398594 982.035757,486.173304 976.02882,493.48 C922.90882,558.45 824.14882,594.01 734.88882,651.61 C471.40882,821.63 442.86882,549.19 454.76882,381.31 C459.56882,313.57 485.94882,251.52 527.85882,204.01 C536.660597,194.017856 546.168369,184.670496 556.30882,176.04 C603.88882,135.52 665.35882,111 734.88882,111 C854.17882,111 956.04882,182.95 996.43882,284.34 C1008.71837,315.194021 1015.01695,348.102206 1014.99879,381.31 L1014.99879,381.31 Z" id="Path" fill="#085352"></path>
            <path d="M794.56883,171.91998 L527.85883,204.00998 C536.660607,194.017836 546.168379,184.670476 556.30883,176.03998 L794.56883,171.91998 Z" id="Path" fill="#D0CDE1"></path>
            <path d="M992.21883,470.22998 C987.44964,478.398574 982.035767,486.173284 976.02883,493.47998 L747.56883,465.99998 L992.21883,470.22998 Z" id="Path" fill="#D0CDE1"></path>
            <path d="M1005.75873,312.21997 L618.56879,261.99997 L996.43879,284.33997 C1000.06786,293.450423 1003.17946,302.75858 1005.75873,312.21997 Z" id="Path" fill="#D0CDE1"></path>
            <path d="M481.03336,183.00214 C481.03336,183.69214 481.01336,184.37214 480.95336,185.04214 C480.124723,196.404926 472.493229,206.132352 461.654209,209.641654 C450.815189,213.150956 438.930636,209.742156 431.599574,201.0212 C424.268511,192.300243 422.953221,180.006646 428.27336,169.93214 C428.87536,168.778315 429.564002,167.671808 430.33336,166.62214 C437.191743,157.109776 449.253009,152.881526 460.549619,156.029395 C471.846229,159.177265 479.9827,169.033739 480.93336,180.72214 C481.00333,181.47211 481.03336,182.23212 481.03336,183.00214 Z" id="Path" fill="#085352"></path>
            <path d="M481.03336,183.00214 C481.03336,183.69214 481.01336,184.37214 480.95336,185.04214 L439.03336,180.00214 L480.93336,180.72214 C481.00333,181.47211 481.03336,182.23212 481.03336,183.00214 Z" id="Path" fill="#D0CDE1"></path>
            <path d="M471.03336,197.11212 L432.25336,201.78212 C431.152565,200.55497 430.162066,199.233189 429.29336,197.83212 L471.03336,197.11212 Z" id="Path" fill="#D0CDE1"></path>
            <path d="M460.03336,166.11212 L428.27336,169.93212 C428.87536,168.778295 429.564002,167.671788 430.33336,166.62212 L460.03336,166.11212 Z" id="Path" fill="#D0CDE1"></path>
            <path d="M864.76626,687.12783 C864.4428,687.73732 864.10635,688.32858 863.73926,688.89226 C857.680714,698.54075 846.379713,703.555689 835.160353,701.574454 C823.940993,699.593219 815.041125,691.010995 812.65363,679.871013 C810.266134,668.73103 814.867229,657.25531 824.28926,650.85026 C825.361898,650.11327 826.488887,649.458693 827.66053,648.89216 C838.177819,643.704735 850.813862,645.62385 859.316732,653.699984 C867.819602,661.776119 870.386235,674.296701 865.74674,685.06693 C865.45697,685.76228 865.12722,686.44765 864.76626,687.12783 Z" id="Path" fill="#085352"></path>
            <path d="M864.76626,687.12783 C864.4428,687.73732 864.10635,688.32858 863.73926,688.89226 L829.07323,664.78934 L865.74677,685.06697 C865.45697,685.76228 865.12722,686.44765 864.76626,687.12783 Z" id="Path" fill="#D0CDE1"></path>
            <path d="M849.31868,694.90368 L812.87442,680.84968 C812.477341,679.249689 812.222047,677.617816 812.1115,675.973 L849.31868,694.90368 Z" id="Path" fill="#D0CDE1"></path>
            <path d="M854.13419,662.36428 L824.28929,650.85028 C825.361928,650.11329 826.488917,649.458713 827.66056,648.89218 L854.13419,662.36428 Z" id="Path" fill="#D0CDE1"></path>
            <path d="M1063.07864,204.45254 C1063.5604,204.94654 1064.02084,205.44731 1064.44564,205.96884 C1071.78596,214.682042 1073.11426,226.97427 1067.80477,237.054419 C1062.49528,247.134568 1051.60704,252.992006 1040.26972,251.867182 C1028.9324,250.742357 1019.40738,242.859632 1016.18209,231.93271 C1015.80746,230.686368 1015.5279,229.413407 1015.34581,228.12478 C1013.6142,216.526322 1019.29672,205.078115 1029.58185,199.444384 C1039.86697,193.810652 1052.5737,195.186049 1061.41512,202.89007 C1061.98888,203.37816 1062.54102,203.90128 1063.07864,204.45254 Z" id="Path" fill="#085352"></path>
            <path d="M1063.07864,204.45254 C1063.5604,204.94654 1064.02084,205.44731 1064.44564,205.96884 L1030.91609,231.62922 L1061.41509,202.89007 C1061.98888,203.37816 1062.54102,203.90128 1063.07864,204.45254 Z" id="Path" fill="#D0CDE1"></path>
            <path d="M1065.7712,221.53592 L1041.26904,251.95538 C1039.62419,251.84542 1037.99223,251.590708 1036.3921,251.1942 L1065.7712,221.53592 Z" id="Path" fill="#D0CDE1"></path>
            <path d="M1036.25208,207.02312 L1016.18208,231.93271 C1015.80745,230.686368 1015.52789,229.413407 1015.3458,228.12478 L1036.25208,207.02312 Z" id="Path" fill="#D0CDE1"></path>
            <path d="M537.78036,720.45319 C537.78036,720.45319 599.22593,723.01343 599.22593,738.37482 C599.22593,753.73621 530.09966,738.37482 530.09966,738.37482 L537.78036,720.45319 Z" id="Path" fill="#FFC1CA"></path>
            <path d="M445.612,955.99456 L330.40155,948.31386 L325.28108,886.86828 L299.67876,940.63316 L187.02854,925.27176 C189.58877,827.98294 230.55254,733.25435 233.11272,720.45318 C235.6729,707.65201 241.79195,654.75754 241.79195,654.75754 C252.98015,631.02429 311.60922,628.7969 357.56557,630.94741 C376.61386,631.81796 393.51133,633.45641 403.93134,634.63415 C410.81822,635.40215 414.88921,635.96552 414.88921,635.96552 C433.24588,654.88567 445.07445,680.66707 452.34542,709.46969 C478.56217,813.23599 445.612,955.99456 445.612,955.99456 Z" id="Path" fill="#2F2E41"></path>
            <circle id="Oval" fill="#FFC1CA" cx="317.60038" cy="298.01487" r="64.00581"></circle>
            <path d="M274.07644,313.37628 C274.07644,313.37628 256.15483,392.74347 227.99226,415.78556 C199.82969,438.82765 338.08226,415.78556 338.08226,415.78556 C338.08226,415.78556 307.35948,364.58091 330.40157,341.53882 C353.44366,318.49673 274.07644,313.37628 274.07644,313.37628 Z" id="Path" fill="#FFC1CA"></path>
            <path d="M404.64828,641.08599 L362.17383,645.79673 L243.35365,659.00762 C243.35365,659.00762 242.79047,657.49701 241.79195,654.75755 C233.16395,631.22901 191.61146,516.73555 187.02854,482.35155 C181.90808,443.94806 235.67295,397.86388 235.67295,397.86388 C235.67295,397.86388 286.8776,387.62295 302.23895,387.62295 C317.6003,387.62295 379.04595,410.66504 379.04595,410.66504 L401.95995,616.78937 L403.93138,634.63411 L404.64828,641.08599 Z" id="Path" fill="#D0CDE1"></path>
            <path d="M452.34542,709.4697 L366.24483,659.00762 C366.24483,659.00762 364.73407,654.09186 362.17383,645.79673 C360.89372,641.64917 359.33233,636.63122 357.5656,630.94742 C347.63189,599.04687 330.96475,546.4085 317.60042,507.95392 C297.11856,449.06858 396.96761,612.92344 396.96761,612.92344 L401.95994,616.78944 L403.93137,634.63418 C410.81825,635.40218 414.88924,635.96555 414.88924,635.96555 C433.24588,654.88568 445.07445,680.66708 452.34542,709.4697 Z" id="Path" fill="#000000" opacity="0.15"></path>
            <path d="M338.08224,415.78556 C338.08224,415.78556 312.47992,449.06856 332.96178,507.95392 C353.44364,566.83928 381.60619,659.00762 381.60619,659.00762 L530.09966,746.05552 L550.58152,720.45319 L412.32898,612.92344 C412.32898,612.92344 407.20851,418.34579 381.60619,410.66509 C356.00387,402.98439 338.08224,415.78556 338.08224,415.78556 Z" id="Path" fill="#D0CDE1"></path>
            <path d="M211.35075,639.80588 C211.35075,639.80588 247.194,714.05261 262.55539,706.37188 C277.91678,698.69115 224.15191,621.88428 224.15191,621.88428 L211.35075,639.80588 Z" id="Path" fill="#FFC1CA"></path>
            <path d="M207.5104,436.26741 L71.81809,548.91763 C71.81809,548.91763 20.61345,584.76089 115.34209,610.36321 C210.07073,635.96553 217.75133,651.32692 217.75133,651.32692 C217.75133,651.32692 227.99226,618.04392 240.79342,623.16437 L130.70342,569.39949 L220.31155,515.63461 L207.5104,436.26741 Z" id="Path" fill="#D0CDE1"></path>
            <path d="M152.97432,350.54882 C160.09599,347.02191 175.82221,339.90403 189.21765,331.32862 C188.27833,303.431 191.71372,278.10601 201.76987,264.682 C207.41449,251.86548 219.2678,239.0339 228.55127,228.92875 C251.34927,204.11338 301.76085,190.26167 310.70189,202.66031 C378.32723,203.9954 385.44657,257.00338 385.44657,257.00338 C385.09477,279.17525 362.051,279.87683 341.86481,279.06888 C343.67246,294.20535 338.8551,309.93312 324.90529,316.90803 C298.22929,330.24603 290.22641,347.58544 303.56448,359.58976 C316.90255,371.59408 340.91098,403.60524 308.89971,411.60797 C276.88844,419.6107 272.88696,435.61651 282.22371,442.28549 C291.56046,448.95447 260.88275,430.28128 260.88275,430.28128 C260.88275,430.28128 255.54763,462.29255 227.53775,454.2897 C225.02762,453.57249 222.51883,451.73481 220.05234,448.98639 C212.48756,457.29839 205.73889,462.21297 200.65267,462.240533 C171.52241,462.39445 175.01562,430.13027 175.01562,430.13027 C175.01562,430.13027 140.43953,439.84076 151.22852,435.93605 C162.01751,432.03134 162.47969,415.53958 133.81162,399.2023 C105.14355,382.86502 136.89362,358.51228 152.97432,350.54882 Z" id="Path" fill="#2F2E41"></path>
            <path d="M510.38383,434.1809 L509.91946,434.11968 L511.05233,438.42611 C512.123205,444.434126 513.678276,450.345683 515.70233,456.10296 L548.92868,582.41078 C551.095852,590.649028 557.941062,596.818504 566.35945,598.12085 L634.11916,608.60346 C643.098541,609.992537 651.976603,605.562013 656.26526,597.55163 L720.65912,477.27537 C722.671213,473.943086 724.509781,470.509061 726.16747,466.98703 L728.35374,462.90336 L728.0128,462.85841 C746.725656,418.591614 735.625441,367.341847 700.273314,334.785014 C664.921187,302.228182 612.932519,295.377507 570.353401,317.665147 C527.774282,339.952787 503.776886,386.577655 510.3838,434.1809 L510.38383,434.1809 Z" id="Path" fill="#FDDA01"></path>
            <path d="M638.27753,616.85568 C637.084102,616.85568 635.892441,616.763894 634.71307,616.58126 L563.88544,605.62326 C554.691922,604.202623 547.216319,597.46495 544.85126,588.46798 L510.12083,456.4421 C507.998283,450.398021 506.36701,444.192492 505.2429,437.88595 L504.36448,432.11007 C499.573478,394.700509 512.644834,357.214561 539.658133,330.895164 C566.671432,304.575767 604.48477,292.484117 641.75702,298.24679 L641.45038,300.22335 C604.578657,294.541349 567.190625,306.620141 540.612569,332.800591 C514.034513,358.981042 501.393588,396.182778 506.51922,433.13595 L507.19452,437.45626 C508.310148,443.709491 509.927682,449.862693 512.03143,455.85617 L546.78583,587.95917 C548.948054,596.186524 555.784093,602.347897 564.1911,603.64667 L635.01874,614.60467 C643.983804,615.982446 652.844022,611.560748 657.13299,603.56854 L658.89667,604.5119 C654.819301,612.107803 646.898588,616.849588 638.27753,616.85568 L638.27753,616.85568 Z" id="Path" fill="#D0CDE1"></path>
            <rect id="Rectangle" fill="#3F3D56" transform="translate(635.910347, 522.170389) rotate(-69.884990) translate(-635.910347, -522.170389) " x="573.253372" y="520.877009" width="125.31395" height="2.58676"></rect>
            <rect id="Rectangle" fill="#3F3D56" transform="translate(587.335940, 514.655787) rotate(-2.515830) translate(-587.335940, -514.655787) " x="586.04256" y="451.998812" width="2.58676" height="125.31395"></rect>
            <path d="M632.2899,676.71076 L541.53257,662.67035 C540.127698,662.44464 539.168817,661.12676 539.386352,659.720599 C539.603886,658.314438 540.916168,657.347908 542.32357,657.55726 L633.0809,671.59767 C633.998633,671.734183 634.772982,672.351714 635.110275,673.216066 C635.447568,674.080417 635.296149,675.059208 634.713441,675.781235 C634.130733,676.503261 633.205983,676.85794 632.2899,676.71076 L632.2899,676.71076 Z" id="Path" fill="#D0CDE1"></path>
            <path d="M634.61705,657.4378 L543.85972,643.39739 C542.941987,643.260877 542.167638,642.643346 541.830345,641.778994 C541.493052,640.914643 541.644471,639.935852 542.227179,639.213825 C542.809887,638.491799 543.734637,638.13712 544.65072,638.2843 L635.40806,652.32471 C636.325793,652.461223 637.100142,653.078754 637.437435,653.943106 C637.774728,654.807457 637.623309,655.786248 637.040601,656.508275 C636.457893,657.230301 635.533143,657.58498 634.61706,657.4378 L634.61705,657.4378 Z" id="Path" fill="#D0CDE1"></path>
            <path d="M636.9442,638.16484 L546.18683,624.12443 C544.781958,623.89872 543.823077,622.58084 544.040612,621.174679 C544.258146,619.768518 545.570428,618.801988 546.97783,619.01134 L637.73516,633.05175 C639.140032,633.27746 640.098913,634.59534 639.881378,636.001501 C639.663844,637.407662 638.351562,638.374192 636.94416,638.16484 L636.9442,638.16484 Z" id="Path" fill="#D0CDE1"></path>
            <path d="M584.09018,687.92591 C602.0924,690.71091 618.23828,682.93543 620.15296,670.55891 L554.96108,660.47355 C553.04639,672.85006 566.08795,685.14092 584.09018,687.92591 Z" id="Path" fill="#D0CDE1"></path>
            <path d="M616.71362,438.09949 C612.84126,437.50106 609.63745,434.4401 607.88098,432.38849 C607.30503,431.7159 606.74448,431.0182 606.18224,430.31897 C604.13673,427.77272 602.20543,425.36813 599.51582,424.11419 C593.57896,421.34428 586.58373,425.21319 580.52718,429.36403 L579.06393,427.2306 C585.72269,422.66546 593.48755,418.44847 600.60972,421.76922 C603.84465,423.27816 606.05843,426.03386 608.19878,428.69831 C608.74378,429.37698 609.28778,430.05358 609.84571,430.70613 C611.67207,432.83885 615.31454,436.29489 619.21745,435.49779 C620.862161,435.018416 622.391819,434.208626 623.7129,433.11793 C624.719377,432.366873 625.783073,431.695712 626.89425,431.11059 C631.502017,428.901086 636.986097,429.676149 640.80109,433.07604 C641.46621,433.706249 642.096215,434.372512 642.68826,435.07182 C643.85198,436.39838 644.95055,437.65032 646.38073,438.10548 C648.49508,438.78148 650.72973,437.57295 653.09759,436.29616 C655.53959,434.97842 658.06396,433.61528 660.92749,433.95154 C661.02035,433.96271 661.11426,433.97532 661.20664,433.98961 C666.30225,434.77792 668.65148,440.41324 669.98076,444.61898 L667.51351,445.39788 C665.70733,439.68105 663.50769,436.83806 660.62451,436.52113 C658.57328,436.27985 656.51051,437.39359 654.32651,438.57229 C651.58871,440.05069 648.75503,441.5788 645.59541,440.57042 C643.48058,439.8975 642.08851,438.31192 640.74341,436.77834 C640.213315,436.150649 639.649676,435.552072 639.05496,434.98523 C636.018696,432.326189 631.696914,431.715285 628.0426,433.42858 C627.052307,433.95526 626.104064,434.557455 625.20629,435.22982 C623.60096,436.538988 621.737008,437.494006 619.73668,438.03224 C618.741102,438.235069 617.717233,438.257846 616.71362,438.09949 L616.71362,438.09949 Z" id="Path" fill="#3F3D56"></path>
        </g>
    </g>
</svg>